<svg version="1.1" id="Layer_1" xmlns="http://www.w3.org/2000/svg" xmlns:xlink="http://www.w3.org/1999/xlink" x="0px" y="0px"
	 width="100%" viewBox="0 0 1913 1650" enable-background="new 0 0 1913 1650" xml:space="preserve">
<path fill="#FFFFFF" opacity="1.000000" stroke="none" 
	d="
M1914.000000,632.000000 
	C1914.000000,972.000000 1914.000000,1311.500000 1914.000000,1651.000000 
	C1276.333374,1651.000000 638.666687,1651.000000 1.000000,1651.000000 
	C1.000000,1101.000000 1.000000,551.000000 1.000000,1.000000 
	C638.666687,1.000000 1276.333374,1.000000 1914.000000,1.000000 
	C1914.000000,211.166672 1914.000000,421.333344 1914.000000,632.000000 
M1233.035522,455.826996 
	C1233.023682,439.660980 1233.100098,423.494293 1232.982422,407.329041 
	C1232.704956,369.229279 1232.529785,331.126770 1231.865234,293.033173 
	C1231.698975,283.503601 1230.645874,273.828217 1228.626953,264.517639 
	C1212.024292,187.948425 1169.160400,132.619278 1095.797974,102.715851 
	C1083.423828,97.671967 1070.270874,94.354424 1057.260132,91.113136 
	C1046.411499,88.410477 1035.246338,85.269608 1024.216919,85.253372 
	C795.723999,84.916939 567.230469,84.973457 338.737091,85.096275 
	C329.553223,85.101212 320.176270,85.597008 311.228180,87.477020 
	C294.058716,91.084351 276.736267,94.692024 260.181274,100.356842 
	C213.202057,116.432266 172.961899,142.845474 141.725388,181.951492 
	C119.252594,210.085953 104.306038,241.951294 96.791603,277.104187 
	C93.859528,290.820557 90.981781,304.872345 90.823540,318.802582 
	C90.079689,384.288513 90.189857,449.785309 90.176826,515.278259 
	C90.130714,747.104919 90.158867,978.931641 90.158867,1210.758301 
	C90.158867,1212.703613 90.158867,1214.648926 90.158867,1217.000000 
	C92.854614,1217.000000 94.986420,1217.000000 97.118225,1217.000000 
	C288.612732,1217.000000 480.107239,1216.999634 671.601746,1217.004883 
	C673.766541,1217.004883 675.931274,1217.078125 678.144958,1218.038940 
	C678.147888,1268.869141 678.414124,1319.701538 678.021179,1370.528687 
	C677.868591,1390.258667 681.019653,1409.287476 686.674988,1428.010376 
	C702.836731,1481.516846 735.980042,1521.908081 783.359558,1550.589478 
	C821.140442,1573.460205 861.700989,1588.538330 906.620056,1588.546631 
	C1209.600220,1588.602783 1512.580322,1588.576050 1815.560425,1588.576050 
	C1817.298340,1588.576050 1819.036133,1588.575928 1821.000122,1588.575928 
	C1821.000122,1585.597168 1821.000244,1583.439819 1821.000244,1581.282471 
	C1821.000366,1293.468018 1821.011597,1005.653625 1820.958008,717.839172 
	C1820.955811,706.387268 1820.721802,694.908691 1819.929443,683.488708 
	C1817.678223,651.036133 1808.831665,620.311707 1793.988770,591.435242 
	C1767.723267,540.335938 1726.779907,504.789825 1674.989136,481.302917 
	C1639.010376,464.986694 1601.392212,456.466858 1561.528931,456.661621 
	C1454.205200,457.186005 1346.877197,456.841583 1239.550903,456.835358 
	C1237.386475,456.835236 1235.222046,456.753601 1233.035522,455.826996 
z"/>
<path fill="#53924D" opacity="1.000000" stroke="none" 
	d="
M1233.057617,456.709961 
	C1235.222046,456.753601 1237.386475,456.835236 1239.550903,456.835358 
	C1346.877197,456.841583 1454.205200,457.186005 1561.528931,456.661621 
	C1601.392212,456.466858 1639.010376,464.986694 1674.989136,481.302917 
	C1726.779907,504.789825 1767.723267,540.335938 1793.988770,591.435242 
	C1808.831665,620.311707 1817.678223,651.036133 1819.929443,683.488708 
	C1820.721802,694.908691 1820.955811,706.387268 1820.958008,717.839172 
	C1821.011597,1005.653625 1821.000366,1293.468018 1821.000244,1581.282471 
	C1821.000244,1583.439819 1821.000122,1585.597168 1821.000122,1588.575928 
	C1819.036133,1588.575928 1817.298340,1588.576050 1815.560425,1588.576050 
	C1512.580322,1588.576050 1209.600220,1588.602783 906.620056,1588.546631 
	C861.700989,1588.538330 821.140442,1573.460205 783.359558,1550.589478 
	C735.980042,1521.908081 702.836731,1481.516846 686.674988,1428.010376 
	C681.019653,1409.287476 677.868591,1390.258667 678.021179,1370.528687 
	C678.414124,1319.701538 678.147888,1268.869141 678.576660,1217.535156 
	C714.565491,1217.049805 750.122681,1217.068115 785.638306,1217.544922 
	C785.589783,1271.163330 785.568604,1324.322998 785.615967,1377.482788 
	C785.618469,1380.288452 785.980835,1383.139404 786.549866,1385.891968 
	C794.129456,1422.556274 815.755493,1448.386963 848.645508,1465.070801 
	C869.493347,1475.646118 891.395874,1481.618774 915.257874,1481.594238 
	C1179.058350,1481.323486 1442.859375,1481.423950 1706.660156,1481.423950 
	C1708.944824,1481.423950 1711.229492,1481.424072 1713.999878,1481.424072 
	C1713.999878,1478.790405 1713.999756,1476.661987 1713.999756,1474.533569 
	C1713.999878,1217.231934 1714.007324,959.930359 1713.949585,702.628723 
	C1713.948364,697.205261 1713.548828,691.728821 1712.741211,686.366577 
	C1702.190796,616.318176 1640.998779,563.853088 1569.955078,563.848328 
	C1459.635376,563.840942 1349.315552,563.845337 1238.995850,563.854370 
	C1237.000854,563.854492 1235.005737,563.974854 1232.542725,563.999146 
	C1196.659912,563.991821 1161.245117,564.024414 1125.376221,563.995605 
	C1122.923950,563.904724 1120.925659,563.849792 1118.927490,563.849670 
	C1047.118774,563.845276 975.309814,563.946655 903.501709,563.739075 
	C892.543152,563.707336 881.972778,565.120361 871.514954,568.094910 
	C838.549988,577.471313 812.641541,595.629944 797.913330,627.530945 
	C788.244019,648.474548 785.360657,670.557800 785.415222,693.560974 
	C785.739075,830.179993 785.574707,966.800171 785.579529,1103.419922 
	C785.579590,1105.584595 785.644531,1107.749146 785.231689,1109.943359 
	C749.222534,1109.942627 713.661011,1109.912354 678.121216,1109.424194 
	C678.146423,969.824829 678.127563,830.683350 678.196472,691.541870 
	C678.201965,680.455627 678.170898,669.305237 679.270935,658.295959 
	C682.227478,628.707153 690.452515,600.527527 704.238892,574.138977 
	C731.505127,521.948059 773.918396,487.589417 829.406189,468.981689 
	C853.673462,460.843689 878.401611,456.349609 904.310425,456.610107 
	C972.291260,457.293640 1040.283569,456.844177 1108.271240,456.834839 
	C1114.101929,456.834045 1119.932739,456.749146 1126.241699,456.774353 
	C1140.700195,456.873077 1154.680542,456.942200 1168.660522,456.918671 
	C1190.126221,456.882568 1211.591919,456.782745 1233.057617,456.709961 
z"/>
<path fill="#205FAC" opacity="1.000000" stroke="none" 
	d="
M785.679871,1217.086304 
	C750.122681,1217.068115 714.565491,1217.049805 678.552185,1217.074463 
	C675.931274,1217.078125 673.766541,1217.004883 671.601746,1217.004883 
	C480.107239,1216.999634 288.612732,1217.000000 97.118225,1217.000000 
	C94.986420,1217.000000 92.854614,1217.000000 90.158867,1217.000000 
	C90.158867,1214.648926 90.158867,1212.703613 90.158867,1210.758301 
	C90.158867,978.931641 90.130714,747.104919 90.176826,515.278259 
	C90.189857,449.785309 90.079689,384.288513 90.823540,318.802582 
	C90.981781,304.872345 93.859528,290.820557 96.791603,277.104187 
	C104.306038,241.951294 119.252594,210.085953 141.725388,181.951492 
	C172.961899,142.845474 213.202057,116.432266 260.181274,100.356842 
	C276.736267,94.692024 294.058716,91.084351 311.228180,87.477020 
	C320.176270,85.597008 329.553223,85.101212 338.737091,85.096275 
	C567.230469,84.973457 795.723999,84.916939 1024.216919,85.253372 
	C1035.246338,85.269608 1046.411499,88.410477 1057.260132,91.113136 
	C1070.270874,94.354424 1083.423828,97.671967 1095.797974,102.715851 
	C1169.160400,132.619278 1212.024292,187.948425 1228.626953,264.517639 
	C1230.645874,273.828217 1231.698975,283.503601 1231.865234,293.033173 
	C1232.529785,331.126770 1232.704956,369.229279 1232.982422,407.329041 
	C1233.100098,423.494293 1233.023682,439.660980 1233.046631,456.268463 
	C1211.591919,456.782745 1190.126221,456.882568 1168.660522,456.918671 
	C1154.680542,456.942200 1140.700195,456.873077 1126.256836,456.330994 
	C1125.808716,454.482483 1125.836548,453.148468 1125.836670,451.814423 
	C1125.838989,407.654755 1125.740234,363.494720 1125.896118,319.335602 
	C1125.945435,305.363861 1125.372437,291.529114 1121.998291,277.895599 
	C1108.314331,222.603439 1059.306519,192.733139 1012.547791,192.550125 
	C790.419678,191.680634 568.286316,192.156342 346.154785,192.196045 
	C341.531525,192.196869 336.885895,192.514206 332.288757,193.025681 
	C305.960175,195.954773 281.409210,204.263901 259.215210,218.719284 
	C220.320206,244.052368 198.147186,280.654236 197.989914,326.537048 
	C197.101212,585.826294 197.559937,845.120178 197.570709,1104.412476 
	C197.570786,1106.169434 197.726395,1107.926514 197.824341,1110.000000 
	C200.062820,1110.000000 201.871445,1110.000000 203.680069,1110.000000 
	C360.155304,1110.000000 516.630554,1110.000366 673.105774,1109.995117 
	C674.770325,1109.995117 676.434937,1109.921265 678.099487,1109.882080 
	C713.661011,1109.912354 749.222534,1109.942627 785.730591,1109.980713 
	C858.983032,1109.992310 931.288940,1110.013306 1003.594788,1109.957520 
	C1007.889343,1109.954224 1012.273865,1109.780884 1016.463257,1108.931152 
	C1049.777222,1102.173340 1079.729980,1089.001465 1102.164551,1062.328735 
	C1115.980957,1045.902222 1125.475098,1026.768921 1125.553589,1005.388306 
	C1126.093628,858.279480 1125.833130,711.167847 1125.830200,564.057068 
	C1161.245117,564.024414 1196.659912,563.991821 1232.538330,564.464050 
	C1233.001221,712.587158 1233.012817,860.205444 1232.952515,1007.823669 
	C1232.950317,1013.414917 1232.658325,1019.068298 1231.811279,1024.586792 
	C1226.607422,1058.484863 1214.400391,1089.548096 1194.800171,1117.854370 
	C1154.239990,1176.430664 1068.970459,1217.925293 1002.104126,1217.186523 
	C929.971191,1216.389648 857.821960,1217.057495 785.679871,1217.086304 
z"/>
<path fill="#FFFFFF" opacity="1.000000" stroke="none" 
	d="
M785.638306,1217.544922 
	C857.821960,1217.057495 929.971191,1216.389648 1002.104126,1217.186523 
	C1068.970459,1217.925293 1154.239990,1176.430664 1194.800171,1117.854370 
	C1214.400391,1089.548096 1226.607422,1058.484863 1231.811279,1024.586792 
	C1232.658325,1019.068298 1232.950317,1013.414917 1232.952515,1007.823669 
	C1233.012817,860.205444 1233.001221,712.587158 1233.006348,564.504028 
	C1235.005737,563.974854 1237.000854,563.854492 1238.995850,563.854370 
	C1349.315552,563.845337 1459.635376,563.840942 1569.955078,563.848328 
	C1640.998779,563.853088 1702.190796,616.318176 1712.741211,686.366577 
	C1713.548828,691.728821 1713.948364,697.205261 1713.949585,702.628723 
	C1714.007324,959.930359 1713.999878,1217.231934 1713.999756,1474.533569 
	C1713.999756,1476.661987 1713.999878,1478.790405 1713.999878,1481.424072 
	C1711.229492,1481.424072 1708.944824,1481.423950 1706.660156,1481.423950 
	C1442.859375,1481.423950 1179.058350,1481.323486 915.257874,1481.594238 
	C891.395874,1481.618774 869.493347,1475.646118 848.645508,1465.070801 
	C815.755493,1448.386963 794.129456,1422.556274 786.549866,1385.891968 
	C785.980835,1383.139404 785.618469,1380.288452 785.615967,1377.482788 
	C785.568604,1324.322998 785.589783,1271.163330 785.638306,1217.544922 
z"/>
<path fill="#FFFFFF" opacity="1.000000" stroke="none" 
	d="
M678.121216,1109.424072 
	C676.434937,1109.921265 674.770325,1109.995117 673.105774,1109.995117 
	C516.630554,1110.000366 360.155304,1110.000000 203.680069,1110.000000 
	C201.871445,1110.000000 200.062820,1110.000000 197.824341,1110.000000 
	C197.726395,1107.926514 197.570786,1106.169434 197.570709,1104.412476 
	C197.559937,845.120178 197.101212,585.826294 197.989914,326.537048 
	C198.147186,280.654236 220.320206,244.052368 259.215210,218.719284 
	C281.409210,204.263901 305.960175,195.954773 332.288757,193.025681 
	C336.885895,192.514206 341.531525,192.196869 346.154785,192.196045 
	C568.286316,192.156342 790.419678,191.680634 1012.547791,192.550125 
	C1059.306519,192.733139 1108.314331,222.603439 1121.998291,277.895599 
	C1125.372437,291.529114 1125.945435,305.363861 1125.896118,319.335602 
	C1125.740234,363.494720 1125.838989,407.654755 1125.836670,451.814423 
	C1125.836548,453.148468 1125.808716,454.482483 1125.778564,456.259918 
	C1119.932739,456.749146 1114.101929,456.834045 1108.271240,456.834839 
	C1040.283569,456.844177 972.291260,457.293640 904.310425,456.610107 
	C878.401611,456.349609 853.673462,460.843689 829.406189,468.981689 
	C773.918396,487.589417 731.505127,521.948059 704.238892,574.138977 
	C690.452515,600.527527 682.227478,628.707153 679.270935,658.295959 
	C678.170898,669.305237 678.201965,680.455627 678.196472,691.541870 
	C678.127563,830.683350 678.146423,969.824829 678.121216,1109.424072 
z"/>
<path fill="#FFFFFF" opacity="1.000000" stroke="none" 
	d="
M1125.376221,563.995605 
	C1125.833130,711.167847 1126.093628,858.279480 1125.553589,1005.388306 
	C1125.475098,1026.768921 1115.980957,1045.902222 1102.164551,1062.328735 
	C1079.729980,1089.001465 1049.777222,1102.173340 1016.463257,1108.931152 
	C1012.273865,1109.780884 1007.889343,1109.954224 1003.594788,1109.957520 
	C931.288940,1110.013306 858.983032,1109.992310 786.178223,1109.951172 
	C785.644531,1107.749146 785.579590,1105.584595 785.579529,1103.419922 
	C785.574707,966.800171 785.739075,830.179993 785.415222,693.560974 
	C785.360657,670.557800 788.244019,648.474548 797.913330,627.530945 
	C812.641541,595.629944 838.549988,577.471313 871.514954,568.094910 
	C881.972778,565.120361 892.543152,563.707336 903.501709,563.739075 
	C975.309814,563.946655 1047.118774,563.845276 1118.927490,563.849670 
	C1120.925659,563.849792 1122.923950,563.904724 1125.376221,563.995605 
z"/>
</svg>